<?xml version="1.0" encoding="UTF-8"?>
<svg id="Layer_1" data-name="Layer 1" xmlns="http://www.w3.org/2000/svg" viewBox="0 0 214.33 214.33">
  <defs>
    <style>
      .cls-1 {
        fill: #cecbe6;
      }
    </style>
  </defs>
  <path class="cls-1" d="m164.33,0H50C22.39,0,0,22.39,0,50v114.33c0,27.61,22.39,50,50,50h114.33c27.61,0,50-22.39,50-50V50c0-27.61-22.39-50-50-50Zm6.58,86.66h.01c.16.48.3.98.45,1.48.08.26.16.53.24.79.27.96.53,1.92.76,2.89,0,.03.01.05.02.08.22.93.42,1.87.6,2.81.06.3.11.61.16.92.12.67.23,1.34.33,2.01.05.36.1.71.15,1.07.08.64.16,1.27.22,1.91.04.36.07.73.11,1.09.06.68.1,1.36.14,2.04.02.31.04.63.06.94.04.99.07,1.98.07,2.98,0,37.67-30.65,68.32-68.32,68.32-1.38,0-2.77-.05-4.14-.13-.45-.03-.91-.08-1.36-.12-.92-.07-1.84-.15-2.76-.27-.54-.07-1.07-.15-1.61-.23-.83-.12-1.66-.25-2.48-.4-.56-.1-1.12-.22-1.68-.34-.79-.17-1.58-.34-2.37-.54-.56-.14-1.12-.29-1.68-.44-.78-.21-1.55-.44-2.32-.68-.55-.17-1.1-.35-1.64-.53-.78-.27-1.55-.55-2.32-.85-.52-.2-1.04-.39-1.55-.6-.81-.33-1.6-.69-2.4-1.05-.46-.21-.92-.41-1.38-.63-.12-.06-.24-.1-.35-.16h.01s7.92-7.94,7.92-7.94c6.99,2.91,14.42,4.38,22.11,4.38,31.87,0,57.81-25.93,57.81-57.8,0-4.18-.46-8.36-1.36-12.46l8.55-8.55Zm-67.72,43.3v11.49c-16.51-1.32-29.73-14.53-31.05-31.05h11.49c1.24,10.21,9.35,18.32,19.56,19.56Zm-14.06-25.01c1.16-7.21,6.86-12.91,14.06-14.08v14.08h-14.06Zm33.55,5.44h.02c-.02.14-.06.28-.08.42-.03.18-.07.36-.11.54-.08.35-.17.7-.27,1.05-.04.15-.08.3-.13.45-.16.49-.33.96-.52,1.43,0,.02-.02.04-.03.05-.19.45-.4.88-.63,1.31-.07.14-.15.27-.23.4-.18.31-.36.61-.55.91-.09.14-.19.28-.28.42-.21.29-.42.58-.65.86-.09.11-.18.23-.27.34-.64.77-1.36,1.48-2.12,2.12-.11.09-.23.18-.34.27-.28.22-.57.44-.87.65-.14.1-.28.19-.42.28-.3.19-.6.38-.91.55-.13.08-.26.16-.4.23-.43.23-.87.44-1.32.64-.02,0-.03.02-.05.02-.47.2-.94.37-1.43.52-.15.05-.3.09-.45.13-.35.1-.69.19-1.05.27-.18.04-.36.08-.54.11-.14.03-.28.06-.42.08v-14.06h14.04Zm-14.04-25.02v-11.48c1.22.1,2.44.26,3.64.5,0,0,0,0,.01,0,15.05,2.86,26.2,15.48,27.41,30.56h-11.5c-1.24-10.21-9.35-18.33-19.56-19.57Zm1.48,44.33c.12-.02.24-.03.36-.06.68-.14,1.35-.32,2.01-.52.19-.06.37-.13.55-.19.47-.16.93-.32,1.38-.51.23-.09.45-.2.68-.3.4-.18.79-.37,1.18-.57.23-.12.46-.25.68-.37.37-.21.74-.44,1.1-.67.21-.14.42-.27.63-.42.38-.26.74-.54,1.1-.83.17-.13.34-.26.5-.39,1.03-.86,1.98-1.81,2.84-2.84.14-.17.27-.34.4-.51.28-.36.56-.72.82-1.1.15-.21.28-.42.42-.64.23-.36.45-.72.66-1.09.13-.23.26-.46.38-.69.2-.38.38-.77.56-1.16.1-.23.21-.46.31-.7.18-.44.34-.89.5-1.35.07-.2.14-.39.2-.58.2-.65.37-1.32.51-1.99.03-.14.04-.28.07-.42.09-.47.18-.94.23-1.42h11.5c-1.32,16.51-14.54,29.73-31.06,31.05v-11.49c.5-.06.99-.15,1.48-.24Zm-1.48-107.66c13.75.43,27.16,4.16,39.11,10.86l-8.79,8.79c-.44-.22-.89-.41-1.34-.63-.5-.24-1-.48-1.51-.71-.83-.37-1.68-.72-2.53-1.07-.47-.19-.94-.39-1.42-.57-1.02-.39-2.06-.75-3.1-1.09-.31-.1-.61-.22-.92-.31-1.35-.43-2.72-.81-4.09-1.16-.36-.09-.72-.16-1.08-.25-1.02-.24-2.05-.48-3.09-.67-.51-.1-1.02-.18-1.53-.26-.89-.15-1.79-.3-2.69-.42-.56-.07-1.12-.14-1.68-.2-.87-.1-1.74-.18-2.61-.24-.57-.04-1.14-.08-1.71-.11-.34-.02-.68-.05-1.03-.07v-11.9ZM26.77,185.68c-4.78,0-8.66-3.89-8.66-8.67s3.88-8.66,8.66-8.66,8.67,3.88,8.67,8.66-3.89,8.67-8.67,8.67Zm9.77-103.08c-.22.6-.41,1.2-.61,1.81-.18.53-.36,1.05-.52,1.59-.19.62-.36,1.24-.53,1.87-.15.53-.31,1.06-.44,1.6-.16.64-.3,1.29-.45,1.94-.12.53-.25,1.05-.36,1.59-.14.67-.25,1.35-.36,2.03-.09.52-.19,1.04-.27,1.56-.11.72-.19,1.44-.28,2.16-.06.5-.13.99-.19,1.49-.08.81-.13,1.62-.19,2.43-.03.42-.07.84-.09,1.27-.06,1.24-.1,2.49-.1,3.75,0,1.73.07,3.45.19,5.17.01.15.02.3.03.45.12,1.63.31,3.26.55,4.88.03.23.06.46.1.68.24,1.58.54,3.15.89,4.71.06.25.11.51.17.76.36,1.55.77,3.09,1.23,4.62.03.11.06.23.09.34l-9.35,9.34c-3.84-9.87-5.78-20.26-5.78-30.95,0-46.33,36.96-84.18,82.94-85.63v11.9c-.18,0-.36.03-.54.03-.6.03-1.19.07-1.79.11-.64.04-1.28.09-1.92.15-.59.06-1.18.13-1.76.2-.63.08-1.26.15-1.89.24-.59.08-1.17.18-1.75.28-.62.1-1.24.21-1.85.33-.58.11-1.15.24-1.72.37-.61.13-1.22.27-1.82.42-.57.14-1.13.29-1.69.45-.6.16-1.19.33-1.78.51-.56.17-1.11.35-1.66.53-.58.19-1.16.38-1.74.59-.55.19-1.09.4-1.63.6-.57.22-1.14.44-1.7.67-.54.22-1.07.45-1.59.68-.55.24-1.11.49-1.65.75-.52.24-1.04.5-1.56.75-.54.27-1.08.54-1.61.82-.51.27-1.01.54-1.52.83-.52.29-1.04.59-1.56.9-.49.29-.99.59-1.47.89-.51.32-1.01.64-1.51.97-.48.32-.95.63-1.42.96-.49.34-.98.69-1.46,1.04-.46.34-.92.68-1.38,1.02-.48.36-.94.73-1.41,1.11-.45.36-.89.72-1.33,1.09-.46.39-.91.78-1.35,1.17-.43.38-.85.76-1.27,1.14-.44.41-.87.82-1.3,1.24-.41.4-.82.8-1.22,1.2-.42.43-.83.86-1.24,1.3-.39.42-.78.83-1.16,1.26-.4.45-.79.9-1.18,1.36-.37.43-.74.87-1.1,1.31-.38.46-.74.94-1.11,1.41-.35.45-.7.9-1.04,1.36-.36.48-.7.98-1.05,1.47-.33.47-.65.93-.97,1.4-.34.5-.66,1.02-.98,1.53-.3.48-.61.96-.9,1.44-.31.52-.61,1.06-.91,1.59-.28.49-.56.98-.83,1.48-.29.54-.56,1.09-.84,1.64-.26.51-.52,1.01-.76,1.52-.27.56-.51,1.12-.76,1.69-.23.51-.47,1.03-.68,1.55-.24.58-.46,1.16-.69,1.75-.2.52-.41,1.04-.61,1.57Zm11.76,29.6c.04.49.11.98.16,1.47.08.76.14,1.53.25,2.29l-8.9,8.9c-.03-.1-.05-.2-.08-.3-.32-1.24-.6-2.48-.85-3.73-.04-.21-.07-.42-.11-.62-.22-1.15-.4-2.31-.56-3.47-.03-.19-.06-.38-.08-.57-.16-1.26-.28-2.52-.36-3.78-.02-.28-.03-.55-.05-.83-.07-1.29-.12-2.59-.12-3.89,0-37.68,30.65-68.33,68.32-68.33,1.34,0,2.67.05,4,.12.44.03.87.07,1.3.11.89.07,1.79.14,2.68.25.52.06,1.03.14,1.54.21.81.11,1.61.23,2.41.37.54.1,1.08.2,1.61.31.77.16,1.54.32,2.31.5.54.13,1.08.26,1.62.41.76.2,1.51.42,2.26.64.53.16,1.05.32,1.58.49.76.25,1.52.52,2.27.8.5.18.99.36,1.48.55.8.32,1.6.66,2.39,1.01.42.19.85.36,1.27.55.08.04.16.07.24.1h0s-8,8.01-8,8.01c-6.68-2.6-13.72-3.92-20.96-3.92-31.87,0-57.81,25.95-57.81,57.85,0,1.48.07,2.98.19,4.48Zm10.62-6.45l-5.23,5.23-.03.03c-.03-.44-.03-.87-.04-1.3-.04-.67-.07-1.34-.07-2,0-.89.02-1.77.07-2.65.01-.3.05-.59.07-.88.04-.58.07-1.16.13-1.73.03-.35.09-.69.13-1.03.06-.52.12-1.04.2-1.55.05-.36.13-.72.19-1.08.08-.49.16-.98.26-1.46.07-.37.16-.73.25-1.1.1-.47.21-.94.32-1.4.09-.37.2-.74.3-1.11.12-.45.25-.9.38-1.34.11-.37.24-.74.36-1.1.14-.43.29-.87.44-1.3.13-.37.28-.73.42-1.09.16-.42.32-.84.5-1.25.15-.36.31-.72.47-1.08.18-.41.36-.81.55-1.21.17-.35.35-.7.52-1.05.2-.4.4-.79.6-1.18.18-.35.38-.69.57-1.03.22-.38.43-.76.66-1.14.2-.34.41-.67.62-1,.23-.37.47-.74.71-1.1.22-.33.44-.65.66-.97.25-.36.5-.71.76-1.06.23-.32.47-.63.71-.94.26-.34.53-.69.8-1.02.25-.31.5-.61.75-.91.28-.33.56-.66.85-.98.26-.29.53-.59.8-.87.29-.32.59-.63.89-.94.27-.28.55-.56.83-.84.31-.3.62-.6.94-.9.29-.27.58-.53.87-.8.32-.29.65-.57.98-.85.3-.25.6-.51.91-.76.34-.27.68-.54,1.02-.8.31-.24.62-.48.94-.71.35-.26.71-.51,1.06-.76.32-.23.65-.45.97-.67.36-.24.73-.47,1.1-.7.33-.21.67-.42,1.01-.63.37-.22.75-.44,1.13-.65.34-.19.68-.39,1.03-.58.39-.21.78-.41,1.18-.6.35-.18.7-.35,1.05-.52.4-.19.81-.37,1.22-.55.36-.16.71-.32,1.07-.47.42-.17.84-.34,1.26-.5.36-.14.72-.28,1.08-.42.43-.16.87-.3,1.31-.45.36-.12.72-.25,1.09-.36.45-.14.9-.26,1.36-.39.36-.1.73-.21,1.09-.3.47-.12.95-.22,1.42-.33.36-.08.71-.17,1.07-.24.51-.1,1.03-.19,1.54-.28.33-.06.66-.12,1-.17.6-.09,1.2-.16,1.8-.23.26-.03.52-.07.78-.1.86-.09,1.73-.15,2.6-.2h0v13.05c-19.52,1.34-35.17,16.99-36.51,36.52h-5.84c-.72,0-1.41.29-1.92.8Zm46.99,87.58c-15.1,0-29.84-3.97-42.85-11.51l8.75-8.75c.42.22.85.41,1.27.62.62.31,1.24.61,1.86.9.75.35,1.52.68,2.28,1,.64.27,1.28.54,1.92.79.77.3,1.56.58,2.34.85.65.23,1.3.46,1.96.67.8.26,1.61.48,2.42.71.65.18,1.3.38,1.96.54.84.21,1.68.39,2.53.57.64.14,1.28.29,1.92.41.89.17,1.79.3,2.69.43.6.09,1.21.2,1.81.28,1,.13,2.01.21,3.02.29.51.04,1.02.11,1.53.14,1.52.1,3.05.15,4.58.15,40.67,0,73.77-33.09,73.77-73.77,0-1.12-.03-2.25-.08-3.36-.02-.37-.05-.73-.07-1.1-.04-.75-.09-1.5-.16-2.24-.04-.44-.1-.88-.14-1.32-.07-.67-.14-1.34-.23-2-.06-.47-.14-.94-.22-1.4-.1-.63-.2-1.26-.31-1.89-.09-.48-.19-.96-.29-1.45-.12-.61-.25-1.21-.39-1.82-.11-.49-.24-.98-.36-1.46-.15-.59-.3-1.18-.47-1.77-.14-.49-.28-.98-.43-1.47-.17-.58-.35-1.15-.54-1.73-.16-.49-.33-.98-.5-1.47-.1-.27-.18-.55-.28-.82l9.14-9.14c4.79,10.86,7.22,22.43,7.22,34.45,0,47.23-38.43,85.66-85.66,85.66ZM181.18,51.1c-8.31,0-15.06-6.73-15.06-15.05s6.74-15.06,15.06-15.06,15.05,6.74,15.05,15.06-6.73,15.05-15.05,15.05Z"/>
</svg>